<?xml version="1.0" encoding="utf-8"?>
<!-- Generator: Adobe Illustrator 15.0.2, SVG Export Plug-In . SVG Version: 6.00 Build 0)  -->
<!DOCTYPE svg PUBLIC "-//W3C//DTD SVG 1.1//EN" "http://www.w3.org/Graphics/SVG/1.1/DTD/svg11.dtd">
<svg version="1.1" id="Layer_1" xmlns="http://www.w3.org/2000/svg" xmlns:xlink="http://www.w3.org/1999/xlink" x="0px" y="0px"
	 width="576px" height="720px" viewBox="0 0 576 720" enable-background="new 0 0 576 720" xml:space="preserve">
<path display="none" opacity="0.75" fill="#231F20" enable-background="new    " d="M224.526,356.385
	C86.083,288.223-16.702,208.646-22.772,166.873c-0.532,0.727-2.499,3.917-2.916,4.714C-44.43,207.636,60.039,302.631,214.3,378.584
	c154.27,75.951,299.918,104.105,318.661,68.057c1.924-3.695,2.021-11.557,1.33-16.324
	C510.754,462.617,375.377,430.654,224.526,356.385z"/>
<path display="none" fill="#ECBD5D" d="M536.178,431.619c18.742-36.049-91.123-126.843-245.393-202.795
	C136.522,152.871-3.729,120.518-22.471,156.558c-18.742,36.04,91.123,126.844,245.394,202.796
	C377.184,435.307,517.436,467.66,536.178,431.619z M227.38,339.92C113.385,283.543,33.197,214.22,48.279,185.083
	c15.083-29.137,119.72-7.054,233.714,49.323c113.995,56.377,194.182,125.701,179.1,154.838
	C442.574,425.035,361.215,406.098,227.38,339.92z"/>
<g id="PaVCES.tif">
	
		<image overflow="visible" width="375" height="521" id="Layer_0" xlink:href="2623C6A8.png"  transform="matrix(1 0 0 1 109.5 101.5)">
	</image>
</g>
</svg>
